{"title":"18+ Certain Women 2016 Movies HDRip XviD ESubs New +Sample ☻rDX☻","uid":15975072,"size":740715940,"categoryP":"video","categoryS":"movies","magnet":"?xt=urn:btih:a44b4c53577aa46eff8a5084cc53ba6a62424ff8&amp;dn=18%2B+Certain+Women+2016+Movies+HDRip+XviD+ESubs+New+%2BSample+%E2%98%BBrDX%E2%98%BB&amp;tr=udp%3A%2F%2Ftracker.leechers-paradise.org%3A6969&amp;tr=udp%3A%2F%2Fzer0day.ch%3A1337&amp;tr=udp%3A%2F%2Fopen.demonii.com%3A1337&amp;tr=udp%3A%2F%2Ftracker.coppersurfer.tk%3A6969&amp;tr=udp%3A%2F%2Fexodus.desync.com%3A6969","seeders":8,"leechers":3,"uploader":"basicssom","files":3,"time":1475817695,"description":"----------------------------------------------------------------\r\n18+ Certain Women 2016 English Movies HDRip XviD ESubs AAC New Source with Sample ☻rDX☻\r\n\r\nSCREEN SHOTS &amp; POSTER:\r\n  \nhttp://postimage.co.nr/2016/10/rent/index.htm  \nhttp://postimage.co.nr/2016/10/rent/1.html  \nhttp://postimage.co.nr/2016/10/rent/2.html  \nhttp://postimage.co.nr/2016/10/rent/3.html  \nhttp://postimage.co.nr/2016/10/rent/4.html  \nhttp://postimage.co.nr/2016/10/rent/5.html  \nhttp://postimage.co.nr/2016/10/rent/6.html  \nhttp://postimage.co.nr/2016/10/rent/7.html  \nhttp://postimage.co.nr/2016/10/rent/8.html  \nhttp://postimage.co.nr/2016/10/rent/9.html  \nhttp://postimage.co.nr/2016/10/rent/10.html\r\n\r\nFormat                                   : Matroska\r\nFormat version                           : Version 4 / Version 2\r\nFile size                                : 693 MiB\r\nDuration                                 : 1 h 47 min\r\nOverall bit rate                         : 904 kb/s\r\nMovie name                               : 18+ Certain Women 2016 English Movies HDRip XviD ESubs AAC New Source ☻rDX☻\r\n\r\nVideo\r\nID                                       : 1\r\nFormat                                   : MPEG-4 Visual\r\nFormat profile                           : Advanced   \r\nFormat settings, BVOP                    : 2\r\nFormat settings, QPel                    : No\r\nFormat settings, GMC                     : No warppoints\r\nFormat settings, Matrix                  : Default (H.263)\r\nMuxing mode                              : Packed bitstream\r\nCodec ID                                 : V_MS/VFW/FOURCC / XVID\r\nCodec ID/Hint                            : XviD\r\nDuration                                 : 1 h 47 min\r\nBit rate                                 : 790 kb/s\r\nWidth                                    : 640 pixels\r\nHeight                                   : 344 pixels\r\nDisplay aspect ratio                     : 1.85:1\r\nFrame rate mode                          : Constant\r\nFrame rate                               : 23.976 (24000/1001) FPS\r\nColor space                              : YUV\r\nChroma subsampling                       : 4:2:0\r\nBit depth                                : 8 bits\r\nScan type                                : Progressive\r\nCompression mode                         : Lossy\r\nBits/(Pixel*Frame)                       : 0.150\r\nStream size                              : 606 MiB (87%)\r\nTitle                                    : ☻rDX☻\r\nWriting library                          : XviD 64\r\nDefault                                  : Yes\r\nForced                                   : No\r\n\r\nAudio\r\nID                                       : 2\r\nFormat                                   : MPEG Audio\r\nFormat version                           : Version 1\r\nFormat profile                           : Layer 3\r\nMode                                     : Joint stereo\r\nMode extension                           : MS Stereo\r\nCodec ID                                 : A_MPEG/L3\r\nCodec ID/Hint                            : MP3\r\nDuration                                 : 1 h 47 min\r\nBit rate mode                            : Constant\r\nBit rate                                 : 96.0 kb/s\r\nChannel(s)                               : 2 channels\r\nSampling rate                            : 48.0 kHz\r\nCompression mode                         : Lossy\r\nStream size                              : 73.6 MiB (11%)\r\nTitle                                    : ☻rDX☻\r\nWriting library                          : LAME3.99r\r\nEncoding settings                        : -m j -V 4 -q 3 -lowpass 15.1 -b 96\r\nDefault                                  : Yes\r\nForced                                   : No\r\n\r\nIMDB \nhttp://www.imdb.com/title/tt4468634/","torrent":{"xt":"urn:btih:a44b4c53577aa46eff8a5084cc53ba6a62424ff8","amp;dn":"18%2B+Certain+Women+2016+Movies+HDRip+XviD+ESubs+New+%2BSample+%E2%98%BBrDX%E2%98%BB","amp;tr":["udp%3A%2F%2Ftracker.leechers-paradise.org%3A6969","udp%3A%2F%2Fzer0day.ch%3A1337","udp%3A%2F%2Fopen.demonii.com%3A1337","udp%3A%2F%2Ftracker.coppersurfer.tk%3A6969","udp%3A%2F%2Fexodus.desync.com%3A6969"],"infoHash":"a44b4c53577aa46eff8a5084cc53ba6a62424ff8","infoHashBuffer":{"type":"Buffer","data":[164,75,76,83,87,122,164,110,255,138,80,132,204,83,186,106,98,66,79,248]},"announce":[],"urlList":[]}}